<svg width="32" height="32" viewBox="0 0 32 32" fill="none" xmlns="http://www.w3.org/2000/svg">
<g clip-path="url(#clip0_52980_90)">
<path d="M32 11.498C32 20.6059 25.5927 27.0455 16.4848 27.0455C7.37697 27.0455 0 19.6685 0 10.5606C0 1.45275 6.8598 11.498 15.9677 11.498C25.0756 11.498 32 2.39013 32 11.498Z" fill="url(#paint0_linear_52980_90)"/>
<path d="M12.9453 19.0526C13.3574 19.0526 13.536 18.8603 13.7696 18.6405C14.1267 18.297 18.715 13.8324 18.715 13.8324L15.8988 13.1455L13.2887 14.794L12.9453 18.9152V19.0526Z" fill="#A9C9DD"/>
<path d="M12.9441 19.0531C12.4083 19.0531 12.5045 18.847 12.3122 18.3387L10.7461 13.1735L20.4722 7.10156L21.6124 7.40378L20.6645 9.98641L12.9441 19.0531Z" fill="#C8DAEA"/>
<path d="M13.2213 14.8496L19.8701 19.7539C20.6257 20.166 21.1752 19.9599 21.3675 19.0532L24.0738 6.30496C24.3485 5.19223 23.6479 4.69768 22.9198 5.02738L7.03943 11.1543C5.95418 11.5938 5.96792 12.1983 6.84711 12.4593L10.9271 13.7369L20.3647 7.78859C20.8043 7.51385 21.2164 7.66496 20.8867 7.96718L13.2213 14.8496Z" fill="url(#paint1_linear_52980_90)"/>
</g>
<defs>
<linearGradient id="paint0_linear_52980_90" x1="20.7991" y1="0.223741" x2="12.5567" y2="19.4558" gradientUnits="userSpaceOnUse">
<stop stop-color="#37AEE2" stop-opacity="0.66"/>
<stop offset="1" stop-color="#A3FFB7" stop-opacity="0.26"/>
</linearGradient>
<linearGradient id="paint1_linear_52980_90" x1="17.2039" y1="12.0135" x2="20.6382" y2="17.5085" gradientUnits="userSpaceOnUse">
<stop stop-color="#F2FBFF"/>
<stop offset="1" stop-color="white"/>
</linearGradient>
<clipPath id="clip0_52980_90">
<rect width="32" height="32" fill="white"/>
</clipPath>
</defs>
</svg>
