<svg width="43" height="43" viewBox="0 0 43 43" fill="none" xmlns="http://www.w3.org/2000/svg">
<rect width="43" height="43" rx="10" fill="black" fill-opacity="0.7"/>
<path d="M37.3815 17.2389C37.3815 25.8861 31.2983 32 22.6511 32C14.0039 32 7 24.9962 7 16.3489C7 7.70172 13.5128 17.2389 22.1601 17.2389C30.8073 17.2389 37.3815 8.5917 37.3815 17.2389Z" fill="url(#paint0_linear_53221_79)"/>
<path d="M19.291 24.411C19.6823 24.411 19.8518 24.2284 20.0736 24.0198C20.4127 23.6937 24.7689 19.4549 24.7689 19.4549L22.0952 18.8027L19.6171 20.3678L19.291 24.2806V24.411Z" fill="#A9C9DD"/>
<path d="M19.2899 24.4115C18.7813 24.4115 18.8726 24.2158 18.69 23.7333L17.2031 18.8293L26.4373 13.0645L27.5198 13.3514L26.6199 15.8034L19.2899 24.4115Z" fill="#C8DAEA"/>
<path d="M19.5519 20.421L25.8645 25.0772C26.5819 25.4684 27.1036 25.2728 27.2862 24.412L29.8556 12.3085C30.1164 11.252 29.4512 10.7825 28.76 11.0955L13.6828 16.9125C12.6524 17.3299 12.6655 17.9038 13.5002 18.1516L17.3738 19.3645L26.3341 13.7171C26.7514 13.4562 27.1427 13.5997 26.8297 13.8866L19.5519 20.421Z" fill="url(#paint1_linear_53221_79)"/>
<defs>
<linearGradient id="paint0_linear_53221_79" x1="26.7471" y1="6.53488" x2="18.9216" y2="24.7942" gradientUnits="userSpaceOnUse">
<stop stop-color="#37AEE2" stop-opacity="0.66"/>
<stop offset="1" stop-color="#A3FFB7" stop-opacity="0.26"/>
</linearGradient>
<linearGradient id="paint1_linear_53221_79" x1="23.3331" y1="17.7283" x2="26.5937" y2="22.9454" gradientUnits="userSpaceOnUse">
<stop stop-color="#F2FBFF"/>
<stop offset="1" stop-color="white"/>
</linearGradient>
</defs>
</svg>
