<svg width="127" height="43" viewBox="0 0 127 43" fill="none" xmlns="http://www.w3.org/2000/svg">
<rect width="127" height="43" rx="10" fill="black" fill-opacity="0.7"/>
<path d="M43.73 34.06C43.59 34.06 43.4367 34.0567 43.27 34.05C43.11 34.0433 42.9467 34.0333 42.78 34.02C42.62 34.0067 42.46 33.99 42.3 33.97C42.14 33.95 41.9933 33.9233 41.86 33.89V27.17C41.9933 27.1367 42.14 27.11 42.3 27.09C42.46 27.07 42.62 27.0533 42.78 27.04C42.9467 27.0267 43.11 27.0167 43.27 27.01C43.43 27.0033 43.58 27 43.72 27C44.12 27 44.4933 27.03 44.84 27.09C45.1933 27.15 45.4967 27.2533 45.75 27.4C46.01 27.54 46.2133 27.7267 46.36 27.96C46.5067 28.1933 46.58 28.48 46.58 28.82C46.58 29.2 46.49 29.5133 46.31 29.76C46.13 30 45.89 30.18 45.59 30.3C45.9967 30.42 46.32 30.61 46.56 30.87C46.8 31.13 46.92 31.4967 46.92 31.97C46.92 32.6633 46.6633 33.1867 46.15 33.54C45.6433 33.8867 44.8367 34.06 43.73 34.06ZM42.82 30.77V33.21C42.8933 33.2167 42.98 33.2233 43.08 33.23C43.1667 33.2367 43.2667 33.2433 43.38 33.25C43.5 33.25 43.6367 33.25 43.79 33.25C44.0767 33.25 44.3467 33.2333 44.6 33.2C44.86 33.16 45.0867 33.0933 45.28 33C45.4733 32.9067 45.6267 32.7767 45.74 32.61C45.86 32.4433 45.92 32.2333 45.92 31.98C45.92 31.7533 45.8767 31.5633 45.79 31.41C45.7033 31.25 45.5767 31.1233 45.41 31.03C45.25 30.9367 45.0567 30.87 44.83 30.83C44.6033 30.79 44.35 30.77 44.07 30.77H42.82ZM42.82 29.99H43.84C44.08 29.99 44.3067 29.9733 44.52 29.94C44.7333 29.9067 44.9167 29.8467 45.07 29.76C45.23 29.6733 45.3533 29.56 45.44 29.42C45.5333 29.28 45.58 29.1033 45.58 28.89C45.58 28.69 45.5333 28.5233 45.44 28.39C45.3467 28.25 45.2167 28.14 45.05 28.06C44.89 27.9733 44.7 27.91 44.48 27.87C44.26 27.83 44.0267 27.81 43.78 27.81C43.5333 27.81 43.34 27.8133 43.2 27.82C43.06 27.8267 42.9333 27.8367 42.82 27.85V29.99ZM55.2658 34.15C54.8124 34.15 54.4191 34.08 54.0858 33.94C53.7524 33.8 53.4791 33.61 53.2658 33.37C53.0524 33.1233 52.8924 32.8333 52.7858 32.5C52.6858 32.1667 52.6358 31.8067 52.6358 31.42V27.07H53.6058V31.31C53.6058 32.0033 53.7591 32.5067 54.0658 32.82C54.3724 33.1333 54.7724 33.29 55.2658 33.29C55.5124 33.29 55.7358 33.2533 55.9358 33.18C56.1424 33.1 56.3191 32.98 56.4658 32.82C56.6124 32.66 56.7258 32.4567 56.8058 32.21C56.8858 31.9567 56.9258 31.6567 56.9258 31.31V27.07H57.8958V31.42C57.8958 31.8067 57.8424 32.1667 57.7358 32.5C57.6358 32.8333 57.4758 33.1233 57.2558 33.37C57.0424 33.61 56.7691 33.8 56.4358 33.94C56.1091 34.08 55.7191 34.15 55.2658 34.15ZM65.5805 33.31C66.5939 33.31 67.1005 32.9633 67.1005 32.27C67.1005 32.0567 67.0539 31.8767 66.9605 31.73C66.8739 31.5767 66.7539 31.4467 66.6005 31.34C66.4472 31.2267 66.2705 31.13 66.0705 31.05C65.8772 30.97 65.6705 30.89 65.4505 30.81C65.1972 30.7233 64.9572 30.6267 64.7305 30.52C64.5039 30.4067 64.3072 30.2767 64.1405 30.13C63.9739 29.9767 63.8405 29.7967 63.7405 29.59C63.6472 29.3833 63.6005 29.1333 63.6005 28.84C63.6005 28.2333 63.8072 27.76 64.2205 27.42C64.6339 27.08 65.2039 26.91 65.9305 26.91C66.3505 26.91 66.7305 26.9567 67.0705 27.05C67.4172 27.1367 67.6705 27.2333 67.8305 27.34L67.5205 28.13C67.3805 28.0433 67.1705 27.96 66.8905 27.88C66.6172 27.7933 66.2972 27.75 65.9305 27.75C65.7439 27.75 65.5705 27.77 65.4105 27.81C65.2505 27.85 65.1105 27.91 64.9905 27.99C64.8705 28.07 64.7739 28.1733 64.7005 28.3C64.6339 28.42 64.6005 28.5633 64.6005 28.73C64.6005 28.9167 64.6372 29.0733 64.7105 29.2C64.7839 29.3267 64.8872 29.44 65.0205 29.54C65.1539 29.6333 65.3072 29.72 65.4805 29.8C65.6605 29.88 65.8572 29.96 66.0705 30.04C66.3705 30.16 66.6439 30.28 66.8905 30.4C67.1439 30.52 67.3605 30.6633 67.5405 30.83C67.7272 30.9967 67.8705 31.1967 67.9705 31.43C68.0705 31.6567 68.1205 31.9333 68.1205 32.26C68.1205 32.8667 67.8972 33.3333 67.4505 33.66C67.0105 33.9867 66.3872 34.15 65.5805 34.15C65.3072 34.15 65.0539 34.13 64.8205 34.09C64.5939 34.0567 64.3905 34.0167 64.2105 33.97C64.0305 33.9167 63.8739 33.8633 63.7405 33.81C63.6139 33.75 63.5139 33.7 63.4405 33.66L63.7305 32.86C63.8839 32.9467 64.1172 33.0433 64.4305 33.15C64.7439 33.2567 65.1272 33.31 65.5805 33.31ZM73.6928 27.07H74.6628V34H73.6928V27.07ZM85.5284 34C85.3817 33.7533 85.2117 33.4767 85.0184 33.17C84.8317 32.8633 84.6284 32.5467 84.4084 32.22C84.1884 31.8867 83.9584 31.55 83.7184 31.21C83.485 30.87 83.2517 30.5433 83.0184 30.23C82.785 29.91 82.5584 29.61 82.3384 29.33C82.1184 29.05 81.915 28.8033 81.7284 28.59V34H80.7784V27.07H81.5484C81.8617 27.4033 82.195 27.7933 82.5484 28.24C82.9084 28.68 83.2617 29.1367 83.6084 29.61C83.9617 30.0767 84.2917 30.5367 84.5984 30.99C84.9117 31.4433 85.175 31.8467 85.3884 32.2V27.07H86.3384V34H85.5284ZM92.4538 34V27.07H96.6838V27.9H93.4238V29.96H96.3238V30.77H93.4238V33.17H96.9338V34H92.4538ZM104.177 33.31C105.19 33.31 105.697 32.9633 105.697 32.27C105.697 32.0567 105.65 31.8767 105.557 31.73C105.47 31.5767 105.35 31.4467 105.197 31.34C105.043 31.2267 104.867 31.13 104.667 31.05C104.473 30.97 104.267 30.89 104.047 30.81C103.793 30.7233 103.553 30.6267 103.327 30.52C103.1 30.4067 102.903 30.2767 102.737 30.13C102.57 29.9767 102.437 29.7967 102.337 29.59C102.243 29.3833 102.197 29.1333 102.197 28.84C102.197 28.2333 102.403 27.76 102.817 27.42C103.23 27.08 103.8 26.91 104.527 26.91C104.947 26.91 105.327 26.9567 105.667 27.05C106.013 27.1367 106.267 27.2333 106.427 27.34L106.117 28.13C105.977 28.0433 105.767 27.96 105.487 27.88C105.213 27.7933 104.893 27.75 104.527 27.75C104.34 27.75 104.167 27.77 104.007 27.81C103.847 27.85 103.707 27.91 103.587 27.99C103.467 28.07 103.37 28.1733 103.297 28.3C103.23 28.42 103.197 28.5633 103.197 28.73C103.197 28.9167 103.233 29.0733 103.307 29.2C103.38 29.3267 103.483 29.44 103.617 29.54C103.75 29.6333 103.903 29.72 104.077 29.8C104.257 29.88 104.453 29.96 104.667 30.04C104.967 30.16 105.24 30.28 105.487 30.4C105.74 30.52 105.957 30.6633 106.137 30.83C106.323 30.9967 106.467 31.1967 106.567 31.43C106.667 31.6567 106.717 31.9333 106.717 32.26C106.717 32.8667 106.493 33.3333 106.047 33.66C105.607 33.9867 104.983 34.15 104.177 34.15C103.903 34.15 103.65 34.13 103.417 34.09C103.19 34.0567 102.987 34.0167 102.807 33.97C102.627 33.9167 102.47 33.8633 102.337 33.81C102.21 33.75 102.11 33.7 102.037 33.66L102.327 32.86C102.48 32.9467 102.713 33.0433 103.027 33.15C103.34 33.2567 103.723 33.31 104.177 33.31ZM113.899 33.31C114.912 33.31 115.419 32.9633 115.419 32.27C115.419 32.0567 115.372 31.8767 115.279 31.73C115.192 31.5767 115.072 31.4467 114.919 31.34C114.766 31.2267 114.589 31.13 114.389 31.05C114.196 30.97 113.989 30.89 113.769 30.81C113.516 30.7233 113.276 30.6267 113.049 30.52C112.822 30.4067 112.626 30.2767 112.459 30.13C112.292 29.9767 112.159 29.7967 112.059 29.59C111.966 29.3833 111.919 29.1333 111.919 28.84C111.919 28.2333 112.126 27.76 112.539 27.42C112.952 27.08 113.522 26.91 114.249 26.91C114.669 26.91 115.049 26.9567 115.389 27.05C115.736 27.1367 115.989 27.2333 116.149 27.34L115.839 28.13C115.699 28.0433 115.489 27.96 115.209 27.88C114.936 27.7933 114.616 27.75 114.249 27.75C114.062 27.75 113.889 27.77 113.729 27.81C113.569 27.85 113.429 27.91 113.309 27.99C113.189 28.07 113.092 28.1733 113.019 28.3C112.952 28.42 112.919 28.5633 112.919 28.73C112.919 28.9167 112.956 29.0733 113.029 29.2C113.102 29.3267 113.206 29.44 113.339 29.54C113.472 29.6333 113.626 29.72 113.799 29.8C113.979 29.88 114.176 29.96 114.389 30.04C114.689 30.16 114.962 30.28 115.209 30.4C115.462 30.52 115.679 30.6633 115.859 30.83C116.046 30.9967 116.189 31.1967 116.289 31.43C116.389 31.6567 116.439 31.9333 116.439 32.26C116.439 32.8667 116.216 33.3333 115.769 33.66C115.329 33.9867 114.706 34.15 113.899 34.15C113.626 34.15 113.372 34.13 113.139 34.09C112.912 34.0567 112.709 34.0167 112.529 33.97C112.349 33.9167 112.192 33.8633 112.059 33.81C111.932 33.75 111.832 33.7 111.759 33.66L112.049 32.86C112.202 32.9467 112.436 33.0433 112.749 33.15C113.062 33.2567 113.446 33.31 113.899 33.31Z" fill="white"/>
<path d="M45.5345 8.912C45.7265 9.264 45.9452 9.70133 46.1905 10.224C46.4465 10.736 46.7079 11.296 46.9745 11.904C47.2519 12.5013 47.5239 13.1147 47.7905 13.744C48.0572 14.3733 48.3079 14.9653 48.5425 15.52C48.7772 14.9653 49.0279 14.3733 49.2945 13.744C49.5612 13.1147 49.8279 12.5013 50.0945 11.904C50.3719 11.296 50.6332 10.736 50.8785 10.224C51.1345 9.70133 51.3585 9.264 51.5505 8.912H53.8225C53.9292 9.648 54.0252 10.4747 54.1105 11.392C54.2065 12.2987 54.2865 13.248 54.3505 14.24C54.4252 15.2213 54.4892 16.208 54.5425 17.2C54.6065 18.192 54.6599 19.1253 54.7025 20H52.2705C52.2385 18.9227 52.1959 17.7493 52.1425 16.48C52.0892 15.2107 52.0092 13.9307 51.9025 12.64C51.7105 13.088 51.4972 13.584 51.2625 14.128C51.0279 14.672 50.7932 15.216 50.5585 15.76C50.3345 16.304 50.1159 16.8267 49.9025 17.328C49.6892 17.8187 49.5079 18.24 49.3585 18.592H47.6145C47.4652 18.24 47.2839 17.8187 47.0705 17.328C46.8572 16.8267 46.6332 16.304 46.3985 15.76C46.1745 15.216 45.9452 14.672 45.7105 14.128C45.4759 13.584 45.2625 13.088 45.0705 12.64C44.9639 13.9307 44.8839 15.2107 44.8305 16.48C44.7772 17.7493 44.7345 18.9227 44.7025 20H42.2705C42.3132 19.1253 42.3612 18.192 42.4145 17.2C42.4785 16.208 42.5425 15.2213 42.6065 14.24C42.6812 13.248 42.7612 12.2987 42.8465 11.392C42.9425 10.4747 43.0439 9.648 43.1505 8.912H45.5345ZM57.1099 20V8.912H64.5979V11.008H59.6059V13.184H64.0379V15.232H59.6059V17.904H64.9659V20H57.1099ZM69.997 18.096C70.349 18.096 70.637 18.0693 70.861 18.016C71.0957 17.952 71.2824 17.872 71.421 17.776C71.5597 17.6693 71.6557 17.5467 71.709 17.408C71.7624 17.2693 71.789 17.1147 71.789 16.944C71.789 16.5813 71.6184 16.2827 71.277 16.048C70.9357 15.8027 70.349 15.5413 69.517 15.264C69.1544 15.136 68.7917 14.992 68.429 14.832C68.0664 14.6613 67.741 14.4533 67.453 14.208C67.165 13.952 66.9304 13.648 66.749 13.296C66.5677 12.9333 66.477 12.496 66.477 11.984C66.477 11.472 66.573 11.0133 66.765 10.608C66.957 10.192 67.229 9.84 67.581 9.552C67.933 9.264 68.3597 9.04533 68.861 8.896C69.3624 8.736 69.9277 8.656 70.557 8.656C71.3037 8.656 71.949 8.736 72.493 8.896C73.037 9.056 73.485 9.232 73.837 9.424L73.117 11.392C72.8077 11.232 72.461 11.0933 72.077 10.976C71.7037 10.848 71.2504 10.784 70.717 10.784C70.1197 10.784 69.6877 10.8693 69.421 11.04C69.165 11.2 69.037 11.4507 69.037 11.792C69.037 11.9947 69.085 12.1653 69.181 12.304C69.277 12.4427 69.4104 12.5707 69.581 12.688C69.7624 12.7947 69.965 12.896 70.189 12.992C70.4237 13.0773 70.6797 13.168 70.957 13.264C71.533 13.4773 72.0344 13.6907 72.461 13.904C72.8877 14.1067 73.2397 14.3467 73.517 14.624C73.805 14.9013 74.0184 15.2267 74.157 15.6C74.2957 15.9733 74.365 16.4267 74.365 16.96C74.365 17.9947 74.0024 18.8 73.277 19.376C72.5517 19.9413 71.4584 20.224 69.997 20.224C69.5064 20.224 69.0637 20.192 68.669 20.128C68.2744 20.0747 67.9224 20.0053 67.613 19.92C67.3144 19.8347 67.053 19.744 66.829 19.648C66.6157 19.552 66.4344 19.4613 66.285 19.376L66.989 17.392C67.3197 17.5733 67.725 17.7387 68.205 17.888C68.6957 18.0267 69.293 18.096 69.997 18.096ZM79.4695 18.096C79.8215 18.096 80.1095 18.0693 80.3335 18.016C80.5682 17.952 80.7549 17.872 80.8935 17.776C81.0322 17.6693 81.1282 17.5467 81.1815 17.408C81.2349 17.2693 81.2615 17.1147 81.2615 16.944C81.2615 16.5813 81.0909 16.2827 80.7495 16.048C80.4082 15.8027 79.8215 15.5413 78.9895 15.264C78.6269 15.136 78.2642 14.992 77.9015 14.832C77.5389 14.6613 77.2135 14.4533 76.9255 14.208C76.6375 13.952 76.4029 13.648 76.2215 13.296C76.0402 12.9333 75.9495 12.496 75.9495 11.984C75.9495 11.472 76.0455 11.0133 76.2375 10.608C76.4295 10.192 76.7015 9.84 77.0535 9.552C77.4055 9.264 77.8322 9.04533 78.3335 8.896C78.8349 8.736 79.4002 8.656 80.0295 8.656C80.7762 8.656 81.4215 8.736 81.9655 8.896C82.5095 9.056 82.9575 9.232 83.3095 9.424L82.5895 11.392C82.2802 11.232 81.9335 11.0933 81.5495 10.976C81.1762 10.848 80.7229 10.784 80.1895 10.784C79.5922 10.784 79.1602 10.8693 78.8935 11.04C78.6375 11.2 78.5095 11.4507 78.5095 11.792C78.5095 11.9947 78.5575 12.1653 78.6535 12.304C78.7495 12.4427 78.8829 12.5707 79.0535 12.688C79.2349 12.7947 79.4375 12.896 79.6615 12.992C79.8962 13.0773 80.1522 13.168 80.4295 13.264C81.0055 13.4773 81.5069 13.6907 81.9335 13.904C82.3602 14.1067 82.7122 14.3467 82.9895 14.624C83.2775 14.9013 83.4909 15.2267 83.6295 15.6C83.7682 15.9733 83.8375 16.4267 83.8375 16.96C83.8375 17.9947 83.4749 18.8 82.7495 19.376C82.0242 19.9413 80.9309 20.224 79.4695 20.224C78.9789 20.224 78.5362 20.192 78.1415 20.128C77.7469 20.0747 77.3949 20.0053 77.0855 19.92C76.7869 19.8347 76.5255 19.744 76.3015 19.648C76.0882 19.552 75.9069 19.4613 75.7575 19.376L76.4615 17.392C76.7922 17.5733 77.1975 17.7387 77.6775 17.888C78.1682 18.0267 78.7655 18.096 79.4695 18.096ZM93.342 20C93.2247 19.616 93.0914 19.2213 92.942 18.816C92.8034 18.4107 92.6647 18.0053 92.526 17.6H88.206C88.0674 18.0053 87.9234 18.4107 87.774 18.816C87.6354 19.2213 87.5074 19.616 87.39 20H84.798C85.214 18.8053 85.6087 17.7013 85.982 16.688C86.3554 15.6747 86.718 14.72 87.07 13.824C87.4327 12.928 87.7847 12.08 88.126 11.28C88.478 10.4693 88.8407 9.68 89.214 8.912H91.598C91.9607 9.68 92.318 10.4693 92.67 11.28C93.022 12.08 93.374 12.928 93.726 13.824C94.0887 14.72 94.4567 15.6747 94.83 16.688C95.2034 17.7013 95.598 18.8053 96.014 20H93.342ZM90.35 11.424C90.2967 11.584 90.2167 11.8027 90.11 12.08C90.0034 12.3573 89.8807 12.6773 89.742 13.04C89.6034 13.4027 89.4487 13.8027 89.278 14.24C89.118 14.6773 88.9527 15.136 88.782 15.616H91.934C91.7634 15.136 91.598 14.6773 91.438 14.24C91.278 13.8027 91.1234 13.4027 90.974 13.04C90.8354 12.6773 90.7127 12.3573 90.606 12.08C90.4994 11.8027 90.414 11.584 90.35 11.424ZM102.611 10.832C101.448 10.832 100.606 11.1573 100.083 11.808C99.571 12.448 99.315 13.328 99.315 14.448C99.315 14.992 99.379 15.488 99.507 15.936C99.635 16.3733 99.827 16.752 100.083 17.072C100.339 17.392 100.659 17.6427 101.043 17.824C101.427 17.9947 101.875 18.08 102.387 18.08C102.664 18.08 102.899 18.0747 103.091 18.064C103.294 18.0533 103.47 18.032 103.619 18V14.144H106.115V19.632C105.816 19.7493 105.336 19.872 104.675 20C104.014 20.1387 103.198 20.208 102.227 20.208C101.395 20.208 100.638 20.08 99.955 19.824C99.283 19.568 98.707 19.1947 98.227 18.704C97.747 18.2133 97.3737 17.6107 97.107 16.896C96.851 16.1813 96.723 15.3653 96.723 14.448C96.723 13.52 96.867 12.6987 97.155 11.984C97.443 11.2693 97.8377 10.6667 98.339 10.176C98.8404 9.67467 99.427 9.296 100.099 9.04C100.782 8.784 101.507 8.656 102.275 8.656C102.798 8.656 103.267 8.69333 103.683 8.768C104.11 8.832 104.472 8.912 104.771 9.008C105.08 9.09333 105.331 9.184 105.523 9.28C105.726 9.376 105.87 9.45067 105.955 9.504L105.235 11.504C104.894 11.3227 104.499 11.168 104.051 11.04C103.614 10.9013 103.134 10.832 102.611 10.832ZM108.597 20V8.912H116.085V11.008H111.093V13.184H115.525V15.232H111.093V17.904H116.453V20H108.597Z" fill="white"/>
<path d="M37.3815 17.2389C37.3815 25.8861 31.2983 32 22.6511 32C14.0039 32 7 24.9962 7 16.3489C7 7.70172 13.5128 17.2389 22.1601 17.2389C30.8073 17.2389 37.3815 8.5917 37.3815 17.2389Z" fill="url(#paint0_linear_52970_91)"/>
<path d="M19.291 24.411C19.6823 24.411 19.8518 24.2284 20.0736 24.0198C20.4127 23.6937 24.7689 19.4549 24.7689 19.4549L22.0952 18.8027L19.6171 20.3678L19.291 24.2806V24.411Z" fill="#A9C9DD"/>
<path d="M19.2899 24.4115C18.7813 24.4115 18.8726 24.2158 18.69 23.7333L17.2031 18.8293L26.4373 13.0645L27.5198 13.3514L26.6199 15.8034L19.2899 24.4115Z" fill="#C8DAEA"/>
<path d="M19.5519 20.421L25.8645 25.0772C26.5819 25.4684 27.1036 25.2728 27.2862 24.412L29.8556 12.3085C30.1164 11.252 29.4512 10.7825 28.76 11.0955L13.6828 16.9125C12.6524 17.3299 12.6655 17.9038 13.5002 18.1516L17.3738 19.3645L26.3341 13.7171C26.7514 13.4562 27.1427 13.5997 26.8297 13.8866L19.5519 20.421Z" fill="url(#paint1_linear_52970_91)"/>
<defs>
<linearGradient id="paint0_linear_52970_91" x1="26.7471" y1="6.53488" x2="18.9216" y2="24.7942" gradientUnits="userSpaceOnUse">
<stop stop-color="#37AEE2" stop-opacity="0.66"/>
<stop offset="1" stop-color="#A3FFB7" stop-opacity="0.26"/>
</linearGradient>
<linearGradient id="paint1_linear_52970_91" x1="23.3331" y1="17.7283" x2="26.5937" y2="22.9454" gradientUnits="userSpaceOnUse">
<stop stop-color="#F2FBFF"/>
<stop offset="1" stop-color="white"/>
</linearGradient>
</defs>
</svg>
